<?xml version="1.0" encoding="UTF-8"?>
<svg xmlns="http://www.w3.org/2000/svg" width="2048" height="45" viewBox="0 0 2048 45">
  <rect width="2048" height="45" fill="#050805"/>
  <g fill="none" stroke="#00ff33" stroke-width="1">
    <rect x="6" y="5" width="47" height="35" rx="2"/><rect x="56" y="5" width="47" height="35" rx="2"/>
    <rect x="106" y="5" width="47" height="35" rx="2"/><rect x="156" y="5" width="47" height="35" rx="2"/>
    <rect x="206" y="5" width="47" height="35" rx="2"/>
    <rect x="260" y="5" width="91" height="35" rx="2"/><rect x="356" y="5" width="46" height="35" rx="2"/>
    <rect x="407" y="5" width="72" height="35" rx="2"/><rect x="484" y="5" width="45" height="35" rx="2"/>
    <rect x="534" y="5" width="64" height="35" rx="2"/><rect x="603" y="5" width="72" height="35" rx="2"/>
    <rect x="858" y="5" width="76" height="35" rx="2"/><rect x="940" y="5" width="178" height="35" rx="2"/>
    <rect x="1124" y="5" width="66" height="35" rx="2"/><rect x="1918" y="5" width="124" height="35" rx="2"/>
  </g>
  <g fill="#00ff33" font-family="monospace" font-size="10" font-weight="bold" text-anchor="middle">
    <text x="30" y="27">01</text><text x="80" y="27">02</text><text x="130" y="27">03</text>
    <text x="180" y="27">04</text><text x="230" y="27">05</text>
    <text x="305" y="27">[ ●  20:30 ]</text><text x="379" y="27">[ ⏻ ]</text>
    <text x="443" y="27">[ ▣ LAN ]</text><text x="506" y="27">[× ON</text>
    <text x="566" y="27">☄ MIC 0%</text><text x="639" y="27">🔗 VPN ON</text>
    <text x="896" y="27">CPU 48.8°C</text><text x="1029" y="27">☢ REACTOR ONLINE</text>
    <text x="1157" y="27">GPU 36°C</text>
    <text x="1980" y="27">☢ ▰▰▰▰▰ 30%</text>
  </g>
</svg>